<?xml version="1.0" encoding="UTF-8"?>
<svg xmlns="http://www.w3.org/2000/svg" xmlns:xlink="http://www.w3.org/1999/xlink" width="75px" height="75px" viewBox="0 0 75 75" version="1.1">
<defs>
<radialGradient id="radial0" gradientUnits="userSpaceOnUse" cx="158.429" cy="578.088" fx="158.429" fy="578.088" r="65" gradientTransform="matrix(0,-1.126125,1.04767,0,-585.453409,258.525)">
<stop offset="0" style="stop-color:rgb(100%,86.666667%,33.333333%);stop-opacity:1;"/>
<stop offset="0.1" style="stop-color:rgb(100%,86.666667%,33.333333%);stop-opacity:1;"/>
<stop offset="0.5" style="stop-color:rgb(100%,32.941176%,24.313725%);stop-opacity:1;"/>
<stop offset="1" style="stop-color:rgb(78.431373%,21.568627%,67.058824%);stop-opacity:1;"/>
</radialGradient>
<radialGradient id="radial1" gradientUnits="userSpaceOnUse" cx="147.694" cy="473.455" fx="147.694" fy="473.455" r="65" gradientTransform="matrix(0.0988295,0.493591,-2.035114,0.407489,937.131818,-259.939205)">
<stop offset="0" style="stop-color:rgb(21.568627%,44.313725%,78.431373%);stop-opacity:1;"/>
<stop offset="0.128" style="stop-color:rgb(21.568627%,44.313725%,78.431373%);stop-opacity:1;"/>
<stop offset="1" style="stop-color:rgb(40%,0%,100%);stop-opacity:0;"/>
</radialGradient>
</defs>
<g id="surface1">
<path style=" stroke:none;fill-rule:nonzero;fill:url(#radial0);" d="M 37.519531 0.566406 C 22.097656 0.566406 17.585938 0.585938 16.710938 0.65625 C 13.546875 0.917969 11.578125 1.417969 9.429688 2.488281 C 7.777344 3.308594 6.472656 4.257812 5.1875 5.59375 C 2.84375 8.027344 1.421875 11.019531 0.910156 14.578125 C 0.660156 16.304688 0.585938 16.65625 0.570312 25.480469 C 0.566406 28.421875 0.570312 32.289062 0.570312 37.480469 C 0.570312 52.890625 0.589844 57.398438 0.660156 58.273438 C 0.917969 61.351562 1.402344 63.289062 2.421875 65.410156 C 4.378906 69.464844 8.109375 72.511719 12.507812 73.648438 C 14.03125 74.039062 15.714844 74.253906 17.871094 74.355469 C 18.785156 74.398438 28.109375 74.425781 37.441406 74.425781 C 46.769531 74.425781 56.097656 74.414062 56.992188 74.367188 C 59.492188 74.25 60.941406 74.054688 62.546875 73.640625 C 66.972656 72.5 70.640625 69.5 72.632812 65.386719 C 73.636719 63.316406 74.144531 61.304688 74.375 58.386719 C 74.425781 57.75 74.445312 47.605469 74.445312 37.472656 C 74.445312 27.339844 74.421875 17.210938 74.375 16.574219 C 74.140625 13.609375 73.632812 11.613281 72.597656 9.507812 C 71.746094 7.78125 70.804688 6.492188 69.433594 5.175781 C 66.992188 2.839844 64.003906 1.421875 60.441406 0.90625 C 58.714844 0.65625 58.371094 0.582031 49.542969 0.566406 Z M 37.519531 0.566406 "/>
<path style=" stroke:none;fill-rule:nonzero;fill:url(#radial1);" d="M 37.519531 0.566406 C 22.097656 0.566406 17.585938 0.585938 16.710938 0.65625 C 13.546875 0.917969 11.578125 1.417969 9.429688 2.488281 C 7.777344 3.308594 6.472656 4.257812 5.1875 5.59375 C 2.84375 8.027344 1.421875 11.019531 0.910156 14.578125 C 0.660156 16.304688 0.585938 16.65625 0.570312 25.480469 C 0.566406 28.421875 0.570312 32.289062 0.570312 37.480469 C 0.570312 52.890625 0.589844 57.398438 0.660156 58.273438 C 0.917969 61.351562 1.402344 63.289062 2.421875 65.410156 C 4.378906 69.464844 8.109375 72.511719 12.507812 73.648438 C 14.03125 74.039062 15.714844 74.253906 17.871094 74.355469 C 18.785156 74.398438 28.109375 74.425781 37.441406 74.425781 C 46.769531 74.425781 56.097656 74.414062 56.992188 74.367188 C 59.492188 74.25 60.941406 74.054688 62.546875 73.640625 C 66.972656 72.5 70.640625 69.5 72.632812 65.386719 C 73.636719 63.316406 74.144531 61.304688 74.375 58.386719 C 74.425781 57.75 74.445312 47.605469 74.445312 37.472656 C 74.445312 27.339844 74.421875 17.210938 74.375 16.574219 C 74.140625 13.609375 73.632812 11.613281 72.597656 9.507812 C 71.746094 7.78125 70.804688 6.492188 69.433594 5.175781 C 66.992188 2.839844 64.003906 1.421875 60.441406 0.90625 C 58.714844 0.65625 58.371094 0.582031 49.542969 0.566406 Z M 37.519531 0.566406 "/>
<path style=" stroke:none;fill-rule:nonzero;fill:rgb(100%,100%,100%);fill-opacity:1;" d="M 37.503906 10.226562 C 30.09375 10.226562 29.164062 10.257812 26.257812 10.390625 C 23.351562 10.523438 21.371094 10.984375 19.636719 11.660156 C 17.84375 12.355469 16.320312 13.289062 14.804688 14.804688 C 13.289062 16.320312 12.355469 17.839844 11.660156 19.632812 C 10.980469 21.371094 10.523438 23.351562 10.390625 26.253906 C 10.261719 29.164062 10.226562 30.09375 10.226562 37.5 C 10.226562 44.90625 10.261719 45.832031 10.390625 48.742188 C 10.527344 51.644531 10.984375 53.628906 11.660156 55.363281 C 12.355469 57.15625 13.289062 58.675781 14.804688 60.191406 C 16.320312 61.710938 17.839844 62.644531 19.632812 63.339844 C 21.371094 64.015625 23.351562 64.476562 26.253906 64.609375 C 29.164062 64.742188 30.09375 64.773438 37.5 64.773438 C 44.90625 64.773438 45.832031 64.742188 48.742188 64.609375 C 51.644531 64.476562 53.628906 64.015625 55.363281 63.339844 C 57.15625 62.644531 58.675781 61.710938 60.191406 60.191406 C 61.710938 58.675781 62.640625 57.15625 63.339844 55.363281 C 64.011719 53.628906 64.472656 51.644531 64.605469 48.742188 C 64.738281 45.835938 64.773438 44.90625 64.773438 37.5 C 64.773438 30.09375 64.738281 29.164062 64.605469 26.253906 C 64.472656 23.351562 64.011719 21.371094 63.339844 19.636719 C 62.640625 17.839844 61.710938 16.320312 60.191406 14.804688 C 58.675781 13.285156 57.160156 12.355469 55.363281 11.660156 C 53.625 10.984375 51.640625 10.523438 48.738281 10.390625 C 45.828125 10.257812 44.902344 10.226562 37.492188 10.226562 Z M 35.054688 15.140625 C 35.78125 15.140625 36.59375 15.140625 37.503906 15.140625 C 44.785156 15.140625 45.648438 15.167969 48.523438 15.300781 C 51.183594 15.421875 52.625 15.863281 53.585938 16.238281 C 54.859375 16.730469 55.765625 17.324219 56.71875 18.277344 C 57.675781 19.230469 58.265625 20.140625 58.761719 21.414062 C 59.132812 22.375 59.578125 23.816406 59.699219 26.476562 C 59.832031 29.351562 59.859375 30.214844 59.859375 37.492188 C 59.859375 44.773438 59.832031 45.636719 59.699219 48.511719 C 59.578125 51.167969 59.132812 52.613281 58.761719 53.574219 C 58.265625 54.847656 57.675781 55.753906 56.71875 56.707031 C 55.765625 57.660156 54.859375 58.25 53.585938 58.746094 C 52.625 59.121094 51.183594 59.5625 48.523438 59.6875 C 45.648438 59.816406 44.785156 59.84375 37.503906 59.84375 C 30.21875 59.84375 29.355469 59.816406 26.480469 59.6875 C 23.824219 59.5625 22.378906 59.117188 21.417969 58.746094 C 20.144531 58.25 19.234375 57.660156 18.28125 56.707031 C 17.328125 55.75 16.734375 54.84375 16.242188 53.570312 C 15.867188 52.609375 15.421875 51.167969 15.300781 48.507812 C 15.171875 45.632812 15.144531 44.769531 15.144531 37.488281 C 15.144531 30.203125 15.171875 29.34375 15.300781 26.46875 C 15.421875 23.8125 15.867188 22.367188 16.242188 21.40625 C 16.734375 20.132812 17.328125 19.222656 18.28125 18.269531 C 19.234375 17.316406 20.144531 16.722656 21.417969 16.230469 C 22.378906 15.855469 23.824219 15.410156 26.480469 15.289062 C 28.996094 15.175781 29.972656 15.140625 35.054688 15.136719 Z M 52.058594 19.671875 C 50.253906 19.671875 48.789062 21.132812 48.789062 22.941406 C 48.789062 24.75 50.253906 26.214844 52.058594 26.214844 C 53.867188 26.214844 55.332031 24.75 55.332031 22.941406 C 55.332031 21.136719 53.867188 19.667969 52.058594 19.667969 Z M 37.503906 23.496094 C 29.769531 23.496094 23.496094 29.765625 23.496094 37.5 C 23.496094 45.234375 29.769531 51.503906 37.503906 51.503906 C 45.238281 51.503906 51.503906 45.234375 51.503906 37.5 C 51.503906 29.765625 45.238281 23.496094 37.5 23.496094 Z M 37.503906 28.410156 C 42.523438 28.410156 46.59375 32.480469 46.59375 37.5 C 46.59375 42.519531 42.523438 46.589844 37.503906 46.589844 C 32.480469 46.589844 28.410156 42.519531 28.410156 37.5 C 28.410156 32.480469 32.480469 28.410156 37.503906 28.410156 Z M 37.503906 28.410156 "/>
</g>
</svg>
