<?xml version="1.0" encoding="UTF-8"?>
<svg xmlns="http://www.w3.org/2000/svg" xmlns:xlink="http://www.w3.org/1999/xlink" width="75px" height="75px" viewBox="0 0 75 75" version="1.1">
<g id="surface1">
<path style=" stroke:none;fill-rule:evenodd;fill:rgb(0%,49.411765%,73.333333%);fill-opacity:1;" d="M 8.332031 75 L 66.667969 75 C 71.269531 75 75 71.269531 75 66.667969 L 75 8.332031 C 75 3.730469 71.269531 0 66.667969 0 L 8.332031 0 C 3.730469 0 0 3.730469 0 8.332031 L 0 66.667969 C 0 71.269531 3.730469 75 8.332031 75 Z M 8.332031 75 "/>
<path style=" stroke:none;fill-rule:evenodd;fill:rgb(100%,100%,100%);fill-opacity:1;" d="M 64.582031 64.582031 L 53.453125 64.582031 L 53.453125 45.628906 C 53.453125 40.429688 51.480469 37.527344 47.367188 37.527344 C 42.890625 37.527344 40.550781 40.546875 40.550781 45.628906 L 40.550781 64.582031 L 29.828125 64.582031 L 29.828125 28.472656 L 40.550781 28.472656 L 40.550781 33.335938 C 40.550781 33.335938 43.777344 27.367188 51.441406 27.367188 C 59.101562 27.367188 64.582031 32.046875 64.582031 41.71875 Z M 17.03125 23.742188 C 13.378906 23.742188 10.417969 20.761719 10.417969 17.082031 C 10.417969 13.398438 13.378906 10.417969 17.03125 10.417969 C 20.683594 10.417969 23.644531 13.398438 23.644531 17.082031 C 23.644531 20.761719 20.683594 23.742188 17.03125 23.742188 Z M 11.492188 64.582031 L 22.675781 64.582031 L 22.675781 28.472656 L 11.492188 28.472656 Z M 11.492188 64.582031 "/>
</g>
</svg>
