<svg width="22" height="23" viewBox="0 0 22 23" fill="none" xmlns="http://www.w3.org/2000/svg">
<path d="M19.6667 1.32495H2.33333C1.59695 1.32495 1 1.93235 1 2.68162V20.3183C1 21.0676 1.59695 21.675 2.33333 21.675H19.6667C20.403 21.675 21 21.0676 21 20.3183V2.68162C21 1.93235 20.403 1.32495 19.6667 1.32495Z" stroke="black" stroke-width="1.5" stroke-linecap="round" stroke-linejoin="round"/>
<path d="M11.8887 14.8916H16.9998" stroke="black" stroke-width="1.5" stroke-linecap="round" stroke-linejoin="round"/>
<path d="M5 14.8916H7.44444" stroke="black" stroke-width="1.5" stroke-linecap="round" stroke-linejoin="round"/>
<path fill-rule="evenodd" clip-rule="evenodd" d="M11.8888 14.8917C11.8888 15.3389 11.7585 15.7761 11.5143 16.1479C11.2701 16.5198 10.923 16.8096 10.517 16.9807C10.1109 17.1519 9.66409 17.1966 9.23303 17.1094C8.80196 17.0221 8.40599 16.8068 8.09521 16.4906C7.78443 16.1744 7.57278 15.7715 7.48704 15.3328C7.40129 14.8942 7.4453 14.4396 7.61349 14.0264C7.78169 13.6133 8.06652 13.2601 8.43196 13.0117C8.7974 12.7632 9.22705 12.6306 9.66656 12.6306C10.2559 12.6306 10.8212 12.8688 11.2379 13.2929C11.6547 13.7169 11.8888 14.292 11.8888 14.8917V14.8917Z" stroke="black" stroke-width="1.5" stroke-linecap="round" stroke-linejoin="round"/>
<path d="M12.7778 8.1084H5" stroke="black" stroke-width="1.5" stroke-linecap="round" stroke-linejoin="round"/>
<path fill-rule="evenodd" clip-rule="evenodd" d="M17.2218 8.10828C17.2218 7.66107 17.0915 7.22391 16.8473 6.85207C16.6031 6.48024 16.256 6.19042 15.85 6.01929C15.4439 5.84815 14.9971 5.80337 14.566 5.89062C14.135 5.97786 13.739 6.19321 13.4282 6.50943C13.1174 6.82566 12.9058 7.22855 12.82 7.66716C12.7343 8.10577 12.7783 8.56041 12.9465 8.97357C13.1147 9.38673 13.3995 9.73987 13.765 9.98833C14.1304 10.2368 14.5601 10.3694 14.9996 10.3694C15.5889 10.3694 16.1542 10.1312 16.5709 9.70713C16.9877 9.28309 17.2218 8.70796 17.2218 8.10828Z" stroke="black" stroke-width="1.5" stroke-linecap="round" stroke-linejoin="round"/>
</svg>
