<svg width="20" height="22" viewBox="0 0 20 22" fill="none" xmlns="http://www.w3.org/2000/svg">
<g id="Mark">
<path id="Vector" d="M18.1519 9.74747C18.1519 16.2021 11.2654 20.1786 9.8343 20.936C9.75502 20.978 9.66596 21 9.57542 21C9.48487 21 9.39581 20.978 9.31653 20.936C7.88435 20.1786 1 16.2021 1 9.74747C1 4.6019 4.21598 1 9.57595 1C14.9359 1 18.1519 4.6019 18.1519 9.74747Z" stroke="#5D5A88" stroke-width="2" stroke-linecap="round" stroke-linejoin="round"/>
<path id="Vector_2" d="M5.2876 9.23291C5.2876 10.3247 5.73937 11.3717 6.54352 12.1437C7.34767 12.9157 8.43833 13.3494 9.57557 13.3494C10.7128 13.3494 11.8035 12.9157 12.6076 12.1437C13.4118 11.3717 13.8635 10.3247 13.8635 9.23291C13.8635 8.14116 13.4118 7.09412 12.6076 6.32214C11.8035 5.55015 10.7128 5.11646 9.57557 5.11646C8.43833 5.11646 7.34767 5.55015 6.54352 6.32214C5.73937 7.09412 5.2876 8.14116 5.2876 9.23291V9.23291Z" stroke="#5D5A88" stroke-width="2" stroke-linecap="round" stroke-linejoin="round"/>
</g>
</svg>
